<?xml version="1.0" encoding="UTF-8" standalone="no"?>
<!-- Created with Inkscape (http://www.inkscape.org/) -->

<svg
   width="400"
   height="60"
   viewBox="0 0 105.83333 15.875"
   version="1.1"
   id="svg1"
   inkscape:version="1.3.2 (091e20ef0f, 2023-11-25, custom)"
   sodipodi:docname="TeXtured-logo.svg"
   xmlns:inkscape="http://www.inkscape.org/namespaces/inkscape"
   xmlns:sodipodi="http://sodipodi.sourceforge.net/DTD/sodipodi-0.dtd"
   xmlns="http://www.w3.org/2000/svg"
   xmlns:svg="http://www.w3.org/2000/svg"
   xmlns:rdf="http://www.w3.org/1999/02/22-rdf-syntax-ns#"
   xmlns:cc="http://creativecommons.org/ns#"
   xmlns:dc="http://purl.org/dc/elements/1.1/">
  <sodipodi:namedview
     id="namedview1"
     pagecolor="#ffffff"
     bordercolor="#666666"
     borderopacity="1.0"
     inkscape:showpageshadow="2"
     inkscape:pageopacity="0.0"
     inkscape:pagecheckerboard="0"
     inkscape:deskcolor="#d1d1d1"
     inkscape:document-units="px"
     inkscape:zoom="2.3131994"
     inkscape:cx="183.51207"
     inkscape:cy="18.372822"
     inkscape:window-width="1920"
     inkscape:window-height="1061"
     inkscape:window-x="0"
     inkscape:window-y="19"
     inkscape:window-maximized="1"
     inkscape:current-layer="layer1" />
  <defs
     id="defs1" />
  <g
     inkscape:label="Layer 1"
     inkscape:groupmode="layer"
     id="layer1">
    <g
       id="g1324"
       aria-label="T&#10;E&#10;XturedTemplate"
       transform="matrix(0.35277776,0,0,0.35277776,4.65596,10.952804)">
      <path
         id="path1325"
         d="m 20.683844,-18.890109 v -0.234375 c 0,-0.960938 -0.210938,-1.429688 -1.441406,-1.429688 H 2.62525 c -1.0664062,0 -1.4296875,0.328125 -1.4296875,1.429688 v 0.234375 c 0,1.441406 0.7148438,1.441406 1.5585938,1.441406 l 6,-0.09375 v 16.1132811 c 0,1.06640627 0.328125,1.429687525 1.4414067,1.429687525 H 11.719 c 1.136719,0 1.429688,-0.386718755 1.429688,-1.429687525 V -17.542453 l 5.976562,0.09375 c 0.832031,0 1.558594,0 1.558594,-1.441406 z M 34.213141,5.4204375 v -0.421875 c 0,-1.4414063 -0.679688,-1.4414063 -1.675782,-1.4414063 l -4.628906,0.070312 -4.359375,0.058594 v -6.1289063 h 7.863281 c 0.925782,0 1.429688,-0.2109375 1.429688,-1.40625 0,-1.1015625 -0.386719,-1.40625 -1.429688,-1.40625 h -7.863281 v -5.5312499 h 1.464844 l 7.019531,0.09375 c 1.042969,0 1.734375,0 1.734375,-1.429687 v -0.246094 c 0,-0.949219 -0.210937,-1.429688 -1.429687,-1.429688 H 20.584234 c -1.066406,0 -1.429687,0.328125 -1.429687,1.429688 V 5.4204375 c 0,1.0664062 0.328125,1.4296875 1.429687,1.4296875 h 12.199219 c 1.136719,0 1.429688,-0.3867188 1.429688,-1.4296875 z m 18.035156,-6.07617188 c 0,-0.2109375 -0.152344,-0.44531252 -0.269531,-0.59765622 l -7.535157,-9.7382814 6.152344,-8.460937 c 0.269531,-0.363282 0.304688,-0.386719 0.304688,-0.597657 0,-0.691406 -0.65625,-0.691406 -1.078125,-0.691406 h -2.238282 c -0.503906,0 -1.019531,0 -1.464843,0.632813 l -3.914063,5.589843 -4.03125,-5.53125 c -0.515625,-0.691406 -0.902344,-0.691406 -1.523437,-0.691406 h -2.484375 c -0.421875,0 -1.042969,0 -1.042969,0.65625 0,0.1875 0,0.246094 0.292969,0.597656 l 6.550781,8.496094 -7.054688,9.7031251 c -0.269531,0.36328127 -0.304687,0.38671877 -0.304687,0.59765627 0,0.691406255 0.65625,0.691406255 1.078125,0.691406255 h 2.238281 c 0.996094,0 1.113281,-0.175781255 1.464844,-0.714843755 l 4.816406,-7.11328127 4.992188,7.17187502 c 0.445312,0.656250005 0.925781,0.656250005 1.488281,0.656250005 h 2.484375 c 0.386719,0 1.078125,0 1.078125,-0.656250005 z M 64.567633,-1.4057344 c 0,-0.09375 -0.05859,-0.2929687 -0.234375,-0.9257812 -0.152344,-0.5976563 -0.210938,-0.7734375 -0.480469,-0.7734375 -0.152344,0 -0.175781,0.023437 -0.363281,0.2109375 -0.328125,0.234375 -1.136719,0.890625 -2.390625,0.890625 -0.714844,0 -1.160156,-0.5039063 -1.160156,-2.484375 v -7.0429684 h 2.660156 c 0.351562,0 1.429687,0 1.429687,-1.078125 0,-1.078125 -1.078125,-1.078125 -1.429687,-1.078125 h -2.660156 v -2.484375 c 0,-0.949219 -0.210938,-1.429688 -1.429688,-1.429688 h -0.9375 c -1.066406,0 -1.429687,0.328125 -1.429687,1.429688 v 2.484375 h -0.691407 c -0.328125,0 -1.429687,0 -1.429687,1.078125 0,1.078125 1.078125,1.078125 1.429687,1.078125 h 0.597657 v 7.5585934 c 0,3.01171872 1.078125,4.30078122 3.140625,4.30078122 0.269531,0 1.582031,0 3.140625,-0.48046875 0.503906,-0.15234375 2.238281,-0.6796875 2.238281,-1.25390627 z m 15.875976,-0.023437 V -12.257297 c 0,-0.949219 -0.210937,-1.429687 -1.429687,-1.429687 h -1.195313 c -1.136718,0 -1.441406,0.386718 -1.441406,1.429687 v 7.0898439 c 0,1.96875 -1.042969,3.6679687 -3.164062,3.6679687 -1.675782,0 -1.851563,-0.4101562 -1.851563,-1.9921875 v -8.7656251 c 0,-0.949219 -0.210937,-1.429687 -1.441406,-1.429687 h -1.195313 c -1.066406,0 -1.429687,0.328125 -1.429687,1.429687 v 8.4960939 c 0,3.19921872 1.734375,4.08984372 4.839844,4.08984372 0.808593,0 2.929687,0 4.335937,-2.54296872 v 0.7851562 c 0,0.94921877 0.210938,1.429687525 1.429688,1.429687525 h 1.113281 c 1.136719,0 1.429687,-0.386718755 1.429687,-1.429687025 z m 12.46875,-10.3710946 v -1.40625 c 0,-0.597656 0,-0.808593 -0.539062,-0.808593 -0.832031,0 -3.023438,0.304687 -4.417969,3.527343 h -0.03516 v -1.945312 c 0,-0.949218 -0.210938,-1.429688 -1.429688,-1.429688 h -0.960937 c -1.078125,0 -1.429688,0.328125 -1.429688,1.429688 v 11.0039066 c 0,1.06640627 0.328125,1.429687525 1.429688,1.429687525 h 1.101562 c 1.136719,0 1.441407,-0.386718755 1.441407,-1.429687525 v -5.4492187 c 0,-2.8359375 2.355468,-3.9960939 4.242187,-4.1132809 0.539063,-0.03516 0.597656,-0.03516 0.597656,-0.808594 z m 14.791991,4.0312509 c 0,-3.8554689 -1.79297,-6.4218759 -6.23437,-6.4218759 -4.781253,0 -7.148441,2.683594 -7.148441,7.2304696 0,4.8984375 2.835938,7.28906252 7.535161,7.28906252 1.13671,0 2.83593,-0.15234375 4.80468,-1.13671875 0.65625,-0.32812497 0.86719,-0.42187497 0.86719,-0.77343747 0,-0.2109375 -0.082,-1.078125 -0.11719,-1.3125 -0.11718,-0.9257813 -0.15234,-0.9609375 -0.42187,-0.9609375 -0.11719,0 -0.17578,0 -0.50391,0.3046875 -1.76953,1.5234375 -3.5625,1.7226562 -4.51172,1.7226562 -3.374997,0 -3.738278,-2.6601562 -3.832028,-4.5703125 h 8.132808 c 0.69141,0 1.42969,-0.023437 1.42969,-1.3710937 z m -3.3164,-0.2109375 h -6.210942 c 0.09375,-1.8164063 0.691406,-4.0664064 3.292972,-4.0664064 2.39062,0 2.83593,1.734375 2.91797,4.0664064 z m 19.18945,6.5507812 V -19.300266 c 0,-0.960937 -0.19922,-1.441406 -1.42969,-1.441406 h -1.10156 c -1.13672,0 -1.44141,0.386719 -1.44141,1.441406 v 6.785157 c -1.33594,-1.289063 -2.83594,-1.5 -3.76172,-1.5 -6.07031,0 -6.07031,5.7421871 -6.07031,7.2070309 0,1.3710937 0,7.13671872 5.91797,7.13671872 1.25391,0 2.54297,-0.36328125 3.83203,-1.73437502 0,1.10156252 0.41016,1.406250025 1.42969,1.406250025 h 1.19531 c 1.13672,0 1.42969,-0.386718755 1.42969,-1.429687025 z m -4.05469,-2.3085937 c 0,0.515625 0,0.7851562 -0.86719,1.3828125 -0.75,0.46875 -1.4414,0.5273437 -1.79297,0.5273437 -3.02343,0 -3.02343,-2.7421875 -3.02343,-4.9804687 0,-2.25 0,-5.0507814 3.35156,-5.0507814 0.86719,0 1.67578,0.292968 2.33203,0.925781 z m 0,0"
         style="fill:#000000;fill-opacity:1;fill-rule:nonzero;stroke:none" />
      <path
         id="path1326"
         d="m 158.76295,-13.147922 -0.59766,-7.078125 h -19.6875 l -0.59766,7.078125 h 1.25391 c 0.26953,-3.257812 0.50391,-5.800781 4.80469,-5.800781 h 2.42578 v 17.6601561 h -4.51172 V 5.15625e-4 l 6.48047,-0.058593755 6.48047,0.058593755 V -1.2885469 h -4.51172 V -18.948703 h 2.39062 c 4.3125,0 4.54688,2.507812 4.81641,5.800781 z m 12.84082,9.6562501 c 0,-0.4570312 -0.45704,-0.4570312 -0.63282,-0.4570312 -0.48047,0 -0.5039,0.09375 -0.6914,0.4804687 -0.77344,1.9453125 -2.74219,2.56640627 -4.1836,2.56640627 -4.32422,0 -4.35937,-4.03124997 -4.35937,-5.70703127 h 9 c 0.67969,0 0.86719,0 0.86719,-0.7382812 0,-0.9023438 -0.21094,-3.1406254 -1.59375,-4.5468754 -1.25391,-1.253906 -2.91797,-1.640625 -4.65235,-1.640625 -4.66406,0 -7.20703,3.046875 -7.20703,6.8085941 0,4.1835938 3.08203,6.90234377 7.59375,6.90234377 4.51172,0 5.85938,-3.16406247 5.85938,-3.66796877 z m -2.75391,-3.984375 h -7.11328 c 0.0586,-1.21875 0.0937,-2.390625 0.71484,-3.4570311 0.57422,-0.960938 1.61719,-1.617188 2.90625,-1.617188 3.1875,0 3.45703,3.5859379 3.49219,5.0742191 z M 199.84888,5.15625e-4 V -1.2885469 h -2.0625 v -7.8515625 c 0,-2.7539066 -1.16015,-4.3124996 -4.51172,-4.3124996 -3.01171,0 -4.41796,2.039062 -4.89843,2.988281 -0.48047,-2.53125 -2.50782,-2.988281 -4.41797,-2.988281 -2.8711,0 -4.42969,1.863281 -5.05078,3.292968 h -0.0352 v -3.292968 l -5.05078,0.246093 v 1.289063 c 1.85156,0 2.0625,0 2.0625,1.160156 v 9.4687501 h -2.0625 V 5.15625e-4 c 0.69141,-0.058593755 2.83594,-0.058593755 3.67969,-0.058593755 0.83203,0 3.01172,0 3.70312,0.058593755 V -1.2885469 h -2.0625 v -6.3632812 c 0,-3.2578129 2.42578,-4.8046879 4.30078,-4.8046879 1.11328,0 1.76953,0.65625 1.76953,2.9882816 v 8.1796875 h -2.0625 V 5.15625e-4 c 0.67969,-0.058593755 2.83594,-0.058593755 3.66797,-0.058593755 0.84375,0 3.02344,0 3.71485,0.058593755 V -1.2885469 h -2.0625 v -6.3632812 c 0,-3.2578129 2.41406,-4.8046879 4.30078,-4.8046879 1.10156,0 1.75781,0.65625 1.75781,2.9882816 v 8.1796875 h -2.0625 V 5.15625e-4 c 0.69141,-0.058593755 2.84766,-0.058593755 3.67969,-0.058593755 0.83203,0 3.02344,0 3.70312,0.058593755 z m 18.2461,-6.667968725 c 0,-4.1249999 -2.77735,-6.7851559 -6.8086,-6.7851559 -1.76953,0 -3.29297,0.597656 -4.48828,1.558593 v -1.558593 l -5.16797,0.246093 v 1.289063 c 1.85157,0 2.0625,0 2.0625,1.160156 V 4.5122344 h -2.0625 v 1.2890625 c 0.69141,-0.058594 2.84766,-0.058594 3.67969,-0.058594 0.83203,0 3.01172,0 3.70313,0.058594 V 4.5122344 h -2.0625 v -5.7421875 c 0.75,0.66796872 2.0625,1.40624997 3.85546,1.40624997 4.08985,0 7.28907,-2.47265627 7.28907,-6.84374997 z m -3.58594,0 c 0,4.3359375 -2.14453,5.85937497 -4.05469,5.85937497 -1.28906,0 -2.57812,-0.65624997 -3.5039,-2.06249997 v -7.5937499 c 1.11328,-1.429688 2.69531,-1.910156 3.85546,-1.910156 1.94532,0 3.70313,1.769531 3.70313,5.7070309 z M 227.80982,5.15625e-4 V -1.2885469 h -2.0625 V -20.741672 l -5.16797,0.246094 v 1.277344 c 1.85156,0 2.0625,0 2.0625,1.171875 v 16.7578121 h -2.0625 V 5.15625e-4 c 0.69141,-0.058593755 2.8125,-0.058593755 3.6211,-0.058593755 0.80859,0 2.92968,0 3.60937,0.058593755 z m 16.96875,-0.656250005 c 0,-0.63281252 -0.26953,-0.63281252 -0.69141,-0.63281252 -1.88671,-0.023437 -1.88671,-0.5039062 -1.88671,-1.1953125 v -6.4453125 c 0,-2.7539061 -2.17969,-4.6054691 -6.38672,-4.6054691 -1.67578,0 -5.20313,0.152344 -5.20313,2.660157 0,1.2539059 0.94922,1.7929684 1.75781,1.7929684 0.90235,0 1.76954,-0.6328125 1.76954,-1.7695314 0,-0.5625 -0.21094,-1.101562 -0.71485,-1.429687 0.98438,-0.269532 1.69922,-0.269532 2.26172,-0.269532 2.03906,0 3.25781,1.136719 3.25781,3.5859379 v 1.1953125 c -4.72265,0 -9.46875,1.3125 -9.46875,4.6289062 0,2.71875002 3.46875,3.31640627 5.53125,3.31640627 2.29688,0 3.76172,-1.25390627 4.35938,-2.56640627 0,1.1015625 0,2.390625025 3.02344,2.390625025 h 1.52343 c 0.6211,0 0.86719,0 0.86719,-0.656250005 z m -5.83594,-3.49218752 c 0,2.8007813 -2.50781,3.33984377 -3.45703,3.33984377 -1.46484,0 -2.69531,-0.98437497 -2.69531,-2.35546877 0,-2.71875 3.22266,-3.6445312 6.15234,-3.796875 z m 17.18848,0.4453125 v -1.5820312 h -1.25391 v 1.546875 c 0,1.9804687 -0.90234,2.83593747 -1.82812,2.83593747 -1.79297,0 -1.79297,-1.99218747 -1.79297,-2.68359377 v -8.4023441 h 4.30078 v -1.277343 h -4.30078 v -5.707032 h -1.25391 c -0.0351,2.953125 -1.46484,5.917969 -4.41797,6 v 0.984375 h 2.41407 v 8.3085941 c 0,3.17578127 2.44922,3.85546877 4.60547,3.85546877 2.21484,0 3.52734,-1.67578127 3.52734,-3.87890627 z m 16.27734,0.2109375 c 0,-0.4570312 -0.45703,-0.4570312 -0.63281,-0.4570312 -0.48047,0 -0.50391,0.09375 -0.69141,0.4804687 -0.77343,1.9453125 -2.74218,2.56640627 -4.18359,2.56640627 -4.32422,0 -4.35937,-4.03124997 -4.35937,-5.70703127 h 9 c 0.67968,0 0.86718,0 0.86718,-0.7382812 0,-0.9023438 -0.21093,-3.1406254 -1.59375,-4.5468754 -1.2539,-1.253906 -2.91797,-1.640625 -4.65234,-1.640625 -4.66406,0 -7.20703,3.046875 -7.20703,6.8085941 0,4.1835938 3.08203,6.90234377 7.59375,6.90234377 4.51172,0 5.85937,-3.16406247 5.85937,-3.66796877 z m -2.7539,-3.984375 h -7.11328 c 0.0586,-1.21875 0.0937,-2.390625 0.71484,-3.4570311 0.57422,-0.960938 1.61719,-1.617188 2.90625,-1.617188 3.1875,0 3.45703,3.5859379 3.49219,5.0742191 z m 0,0"
         style="fill:#000000;fill-opacity:1;fill-rule:nonzero;stroke:none" />
    </g>
  </g>
  <metadata
     id="metadata1">
    <rdf:RDF>
      <cc:Work
         rdf:about="">
        <dc:creator>
          <cc:Agent>
            <dc:title>Jonáš Dujava</dc:title>
          </cc:Agent>
        </dc:creator>
      </cc:Work>
    </rdf:RDF>
  </metadata>
</svg>
